<mxfile host="app.diagrams.net" modified="2021-06-14T21:23:20.346Z" agent="5.0 (Windows NT 10.0; Win64; x64) AppleWebKit/537.36 (KHTML, like Gecko) Chrome/91.0.4472.77 Safari/537.36" etag="6PZbzy9BWK-b9NI8ERKJ" version="14.7.7" type="github">
  <diagram name="Page-1" id="03018318-947c-dd8e-b7a3-06fadd420f32">
    <mxGraphModel dx="1480" dy="781" grid="1" gridSize="10" guides="1" tooltips="1" connect="1" arrows="1" fold="1" page="1" pageScale="1" pageWidth="4681" pageHeight="3300" background="#ffffff" math="0" shadow="0">
      <root>
        <mxCell id="0" />
        <mxCell id="1" parent="0" />
        <mxCell id="wdpsz7SIbts_I8NSBxIE-1" value="Авторизация&lt;br&gt;" style="strokeWidth=1;shadow=0;dashed=0;align=left;html=1;shape=mxgraph.mockup.containers.window;align=left;verticalAlign=top;spacingLeft=8;strokeColor2=#008cff;strokeColor3=#c4c4c4;mainText=;fontSize=17;labelBackgroundColor=none;" vertex="1" parent="1">
          <mxGeometry x="520" y="45" width="280" height="350" as="geometry" />
        </mxCell>
        <mxCell id="wdpsz7SIbts_I8NSBxIE-2" value="Amperiadmin" style="strokeWidth=1;shadow=0;dashed=0;align=left;html=1;shape=mxgraph.mockup.text.textBox;fontColor=#666666;align=left;fontSize=17;spacingLeft=4;spacingTop=-3;strokeColor=#666666;mainText=;gradientColor=none;" vertex="1" parent="1">
          <mxGeometry x="540" y="185" width="240" height="30" as="geometry" />
        </mxCell>
        <UserObject label="Логин" placeholders="1" name="Variable" id="wdpsz7SIbts_I8NSBxIE-6">
          <mxCell style="text;html=1;strokeColor=none;fillColor=none;align=left;verticalAlign=middle;whiteSpace=wrap;overflow=hidden;fontSize=15;" vertex="1" parent="1">
            <mxGeometry x="540" y="155" width="80" height="20" as="geometry" />
          </mxCell>
        </UserObject>
        <UserObject label="Пароль" placeholders="1" name="Variable" id="wdpsz7SIbts_I8NSBxIE-7">
          <mxCell style="text;html=1;strokeColor=none;fillColor=none;align=left;verticalAlign=middle;whiteSpace=wrap;overflow=hidden;fontSize=15;" vertex="1" parent="1">
            <mxGeometry x="540" y="225" width="80" height="20" as="geometry" />
          </mxCell>
        </UserObject>
        <mxCell id="wdpsz7SIbts_I8NSBxIE-9" value="Войти" style="text;strokeColor=none;fillColor=none;html=1;fontSize=24;fontStyle=1;verticalAlign=middle;align=left;" vertex="1" parent="1">
          <mxGeometry x="530" y="85" width="100" height="40" as="geometry" />
        </mxCell>
        <mxCell id="wdpsz7SIbts_I8NSBxIE-11" value="Регистрация" style="strokeWidth=1;shadow=0;dashed=0;align=left;html=1;shape=mxgraph.mockup.containers.window;align=left;verticalAlign=top;spacingLeft=8;strokeColor2=#008cff;strokeColor3=#c4c4c4;fontColor=#666666;mainText=;fontSize=17;labelBackgroundColor=none;gradientColor=none;" vertex="1" parent="1">
          <mxGeometry x="1010" y="50" width="560" height="350" as="geometry" />
        </mxCell>
        <mxCell id="wdpsz7SIbts_I8NSBxIE-12" value="Регистрация" style="text;strokeColor=none;fillColor=none;html=1;fontSize=24;fontStyle=1;verticalAlign=middle;align=left;" vertex="1" parent="1">
          <mxGeometry x="1030" y="90" width="100" height="40" as="geometry" />
        </mxCell>
        <mxCell id="wdpsz7SIbts_I8NSBxIE-25" value="" style="shape=line;strokeColor=#ddeeff;strokeWidth=2;html=1;resizeWidth=1;align=left;" vertex="1" parent="1">
          <mxGeometry x="530" y="125" width="260" height="10" as="geometry" />
        </mxCell>
        <mxCell id="wdpsz7SIbts_I8NSBxIE-27" value="****" style="strokeWidth=1;shadow=0;dashed=0;align=left;html=1;shape=mxgraph.mockup.forms.pwField;strokeColor=#999999;mainText=;align=left;fontColor=#666666;fontSize=17;spacingLeft=3;gradientColor=none;" vertex="1" parent="1">
          <mxGeometry x="540" y="255" width="240" height="30" as="geometry" />
        </mxCell>
        <mxCell id="wdpsz7SIbts_I8NSBxIE-28" value="" style="shape=line;strokeColor=#ddeeff;strokeWidth=2;html=1;resizeWidth=1;align=left;" vertex="1" parent="1">
          <mxGeometry x="1020" y="130" width="530" height="10" as="geometry" />
        </mxCell>
        <mxCell id="wdpsz7SIbts_I8NSBxIE-30" value="Войти" style="rounded=0;whiteSpace=wrap;html=1;fontSize=17;fillColor=#f5f5f5;strokeColor=#666666;fontColor=#333333;align=center;" vertex="1" parent="1">
          <mxGeometry x="597.5" y="325" width="125" height="40" as="geometry" />
        </mxCell>
        <UserObject label="Отчество" placeholders="1" name="Variable" id="wdpsz7SIbts_I8NSBxIE-31">
          <mxCell style="text;html=1;strokeColor=none;fillColor=none;align=left;verticalAlign=middle;whiteSpace=wrap;overflow=hidden;fontSize=15;" vertex="1" parent="1">
            <mxGeometry x="1025" y="299" width="80" height="20" as="geometry" />
          </mxCell>
        </UserObject>
        <UserObject label="Имя" placeholders="1" name="Variable" id="wdpsz7SIbts_I8NSBxIE-32">
          <mxCell style="text;html=1;strokeColor=none;fillColor=none;align=left;verticalAlign=middle;whiteSpace=wrap;overflow=hidden;fontSize=15;" vertex="1" parent="1">
            <mxGeometry x="1025" y="230" width="80" height="20" as="geometry" />
          </mxCell>
        </UserObject>
        <UserObject label="Фамилия" placeholders="1" name="Variable" id="wdpsz7SIbts_I8NSBxIE-33">
          <mxCell style="text;html=1;strokeColor=none;fillColor=none;align=left;verticalAlign=middle;whiteSpace=wrap;overflow=hidden;fontSize=15;" vertex="1" parent="1">
            <mxGeometry x="1030" y="160" width="80" height="20" as="geometry" />
          </mxCell>
        </UserObject>
        <mxCell id="wdpsz7SIbts_I8NSBxIE-34" value="" style="strokeWidth=1;shadow=0;dashed=0;align=left;html=1;shape=mxgraph.mockup.text.textBox;fontColor=#666666;align=left;fontSize=17;spacingLeft=4;spacingTop=-3;strokeColor=#666666;mainText=;gradientColor=none;" vertex="1" parent="1">
          <mxGeometry x="1025" y="190" width="150" height="30" as="geometry" />
        </mxCell>
        <mxCell id="wdpsz7SIbts_I8NSBxIE-35" value="" style="strokeWidth=1;shadow=0;dashed=0;align=left;html=1;shape=mxgraph.mockup.text.textBox;fontColor=#666666;align=left;fontSize=17;spacingLeft=4;spacingTop=-3;strokeColor=#666666;mainText=;gradientColor=none;" vertex="1" parent="1">
          <mxGeometry x="1025" y="259" width="150" height="30" as="geometry" />
        </mxCell>
        <mxCell id="wdpsz7SIbts_I8NSBxIE-36" value="" style="strokeWidth=1;shadow=0;dashed=0;align=left;html=1;shape=mxgraph.mockup.text.textBox;fontColor=#666666;align=left;fontSize=17;spacingLeft=4;spacingTop=-3;strokeColor=#666666;mainText=;gradientColor=none;" vertex="1" parent="1">
          <mxGeometry x="1025" y="330" width="150" height="30" as="geometry" />
        </mxCell>
        <UserObject label="Пароль" placeholders="1" name="Variable" id="wdpsz7SIbts_I8NSBxIE-38">
          <mxCell style="text;html=1;strokeColor=none;fillColor=none;align=left;verticalAlign=middle;whiteSpace=wrap;overflow=hidden;fontSize=15;" vertex="1" parent="1">
            <mxGeometry x="1216" y="230" width="80" height="20" as="geometry" />
          </mxCell>
        </UserObject>
        <UserObject label="Логин" placeholders="1" name="Variable" id="wdpsz7SIbts_I8NSBxIE-39">
          <mxCell style="text;html=1;strokeColor=none;fillColor=none;align=left;verticalAlign=middle;whiteSpace=wrap;overflow=hidden;fontSize=15;" vertex="1" parent="1">
            <mxGeometry x="1221" y="160" width="80" height="20" as="geometry" />
          </mxCell>
        </UserObject>
        <mxCell id="wdpsz7SIbts_I8NSBxIE-40" value="" style="strokeWidth=1;shadow=0;dashed=0;align=left;html=1;shape=mxgraph.mockup.text.textBox;fontColor=#666666;align=left;fontSize=17;spacingLeft=4;spacingTop=-3;strokeColor=#666666;mainText=;gradientColor=none;" vertex="1" parent="1">
          <mxGeometry x="1216" y="190" width="150" height="30" as="geometry" />
        </mxCell>
        <mxCell id="wdpsz7SIbts_I8NSBxIE-41" value="" style="strokeWidth=1;shadow=0;dashed=0;align=left;html=1;shape=mxgraph.mockup.text.textBox;fontColor=#666666;align=left;fontSize=17;spacingLeft=4;spacingTop=-3;strokeColor=#666666;mainText=;gradientColor=none;" vertex="1" parent="1">
          <mxGeometry x="1216" y="259" width="150" height="30" as="geometry" />
        </mxCell>
        <UserObject label="Роль" placeholders="1" name="Variable" id="wdpsz7SIbts_I8NSBxIE-42">
          <mxCell style="text;html=1;strokeColor=none;fillColor=none;align=left;verticalAlign=middle;whiteSpace=wrap;overflow=hidden;fontSize=15;" vertex="1" parent="1">
            <mxGeometry x="1400" y="163" width="80" height="20" as="geometry" />
          </mxCell>
        </UserObject>
        <mxCell id="wdpsz7SIbts_I8NSBxIE-43" value="Администратор" style="shape=ellipse;fillColor=#eeeeee;strokeColor=#999999;gradientColor=#cccccc;html=1;align=left;spacingLeft=4;fontSize=17;fontColor=#666666;labelPosition=right;shadow=0;" vertex="1" parent="1">
          <mxGeometry x="1400" y="194" width="15" height="15" as="geometry" />
        </mxCell>
        <mxCell id="wdpsz7SIbts_I8NSBxIE-44" value="Кладовщик" style="shape=ellipse;fillColor=#eeeeee;strokeColor=#999999;gradientColor=#cccccc;html=1;align=left;spacingLeft=4;fontSize=17;fontColor=#666666;labelPosition=right;shadow=0;" vertex="1" parent="1">
          <mxGeometry x="1400" y="219" width="15" height="15" as="geometry" />
        </mxCell>
        <mxCell id="wdpsz7SIbts_I8NSBxIE-45" value="Повар" style="shape=ellipse;fillColor=#eeeeee;strokeColor=#999999;gradientColor=#cccccc;html=1;align=left;spacingLeft=4;fontSize=17;fontColor=#666666;labelPosition=right;shadow=0;" vertex="1" parent="1">
          <mxGeometry x="1400" y="244" width="15" height="15" as="geometry" />
        </mxCell>
        <UserObject label="Телефон" placeholders="1" name="Variable" id="wdpsz7SIbts_I8NSBxIE-47">
          <mxCell style="text;html=1;strokeColor=none;fillColor=none;align=left;verticalAlign=middle;whiteSpace=wrap;overflow=hidden;fontSize=15;" vertex="1" parent="1">
            <mxGeometry x="1216" y="299" width="80" height="20" as="geometry" />
          </mxCell>
        </UserObject>
        <mxCell id="wdpsz7SIbts_I8NSBxIE-48" value="" style="strokeWidth=1;shadow=0;dashed=0;align=left;html=1;shape=mxgraph.mockup.text.textBox;fontColor=#666666;align=left;fontSize=17;spacingLeft=4;spacingTop=-3;strokeColor=#666666;mainText=;gradientColor=none;" vertex="1" parent="1">
          <mxGeometry x="1216" y="330" width="150" height="30" as="geometry" />
        </mxCell>
        <mxCell id="wdpsz7SIbts_I8NSBxIE-49" value="Зарегистрировать" style="rounded=0;whiteSpace=wrap;html=1;fontSize=17;fillColor=#f5f5f5;strokeColor=#666666;fontColor=#333333;align=center;" vertex="1" parent="1">
          <mxGeometry x="1400" y="319" width="150" height="40" as="geometry" />
        </mxCell>
        <mxCell id="wdpsz7SIbts_I8NSBxIE-50" value="Добавить продукт" style="strokeWidth=1;shadow=0;dashed=0;align=center;html=1;shape=mxgraph.mockup.containers.window;align=left;verticalAlign=top;spacingLeft=8;strokeColor2=#CCCCCC;strokeColor3=#c4c4c4;fontColor=#666666;mainText=;fontSize=17;labelBackgroundColor=none;gradientColor=none;connectable=1;recursiveResize=1;" vertex="1" parent="1">
          <mxGeometry x="1010" y="420" width="380" height="330" as="geometry" />
        </mxCell>
        <mxCell id="wdpsz7SIbts_I8NSBxIE-51" value="Новый продукт" style="text;strokeColor=none;fillColor=none;html=1;fontSize=24;fontStyle=1;verticalAlign=middle;align=left;" vertex="1" parent="1">
          <mxGeometry x="1030" y="470" width="100" height="40" as="geometry" />
        </mxCell>
        <mxCell id="wdpsz7SIbts_I8NSBxIE-52" value="" style="shape=line;strokeColor=#ddeeff;strokeWidth=2;html=1;resizeWidth=1;align=left;" vertex="1" parent="1">
          <mxGeometry x="1020" y="510" width="350" height="10" as="geometry" />
        </mxCell>
        <UserObject label="Цена за единицу" placeholders="1" name="Variable" id="wdpsz7SIbts_I8NSBxIE-53">
          <mxCell style="text;html=1;strokeColor=none;fillColor=none;align=left;verticalAlign=middle;whiteSpace=wrap;overflow=hidden;fontSize=15;" vertex="1" parent="1">
            <mxGeometry x="1212.5" y="530" width="160" height="20" as="geometry" />
          </mxCell>
        </UserObject>
        <UserObject label="Количество" placeholders="1" name="Variable" id="wdpsz7SIbts_I8NSBxIE-54">
          <mxCell style="text;html=1;strokeColor=none;fillColor=none;align=left;verticalAlign=middle;whiteSpace=wrap;overflow=hidden;fontSize=15;" vertex="1" parent="1">
            <mxGeometry x="1030" y="600" width="100" height="20" as="geometry" />
          </mxCell>
        </UserObject>
        <UserObject label="Название" placeholders="1" name="Variable" id="wdpsz7SIbts_I8NSBxIE-55">
          <mxCell style="text;html=1;strokeColor=none;fillColor=none;align=left;verticalAlign=middle;whiteSpace=wrap;overflow=hidden;fontSize=15;" vertex="1" parent="1">
            <mxGeometry x="1035" y="530" width="80" height="20" as="geometry" />
          </mxCell>
        </UserObject>
        <mxCell id="wdpsz7SIbts_I8NSBxIE-56" value="" style="strokeWidth=1;shadow=0;dashed=0;align=left;html=1;shape=mxgraph.mockup.text.textBox;fontColor=#666666;align=left;fontSize=17;spacingLeft=4;spacingTop=-3;strokeColor=#666666;mainText=;gradientColor=none;" vertex="1" parent="1">
          <mxGeometry x="1030" y="560" width="150" height="30" as="geometry" />
        </mxCell>
        <mxCell id="wdpsz7SIbts_I8NSBxIE-57" value="" style="strokeWidth=1;shadow=0;dashed=0;align=left;html=1;shape=mxgraph.mockup.text.textBox;fontColor=#666666;align=left;fontSize=17;spacingLeft=4;spacingTop=-3;strokeColor=#666666;mainText=;gradientColor=none;" vertex="1" parent="1">
          <mxGeometry x="1030" y="629" width="150" height="30" as="geometry" />
        </mxCell>
        <UserObject label="Единицы измерения" placeholders="1" name="Variable" id="wdpsz7SIbts_I8NSBxIE-60">
          <mxCell style="text;html=1;strokeColor=none;fillColor=none;align=left;verticalAlign=middle;whiteSpace=wrap;overflow=hidden;fontSize=15;" vertex="1" parent="1">
            <mxGeometry x="1212.5" y="600" width="147.5" height="20" as="geometry" />
          </mxCell>
        </UserObject>
        <mxCell id="wdpsz7SIbts_I8NSBxIE-61" value="" style="strokeWidth=1;shadow=0;dashed=0;align=left;html=1;shape=mxgraph.mockup.text.textBox;fontColor=#666666;align=left;fontSize=17;spacingLeft=4;spacingTop=-3;strokeColor=#666666;mainText=;gradientColor=none;" vertex="1" parent="1">
          <mxGeometry x="1212.5" y="560" width="150" height="30" as="geometry" />
        </mxCell>
        <mxCell id="wdpsz7SIbts_I8NSBxIE-62" value="Кг" style="strokeWidth=1;shadow=0;dashed=0;align=center;html=1;shape=mxgraph.mockup.forms.comboBox;strokeColor=#999999;fillColor=#ddeeff;align=left;fillColor2=#E6E6E6;mainText=;fontColor=#666666;fontSize=17;spacingLeft=3;labelBackgroundColor=none;sketch=0;" vertex="1" parent="1">
          <mxGeometry x="1212.5" y="630" width="150" height="30" as="geometry" />
        </mxCell>
        <mxCell id="wdpsz7SIbts_I8NSBxIE-63" value="Добавить" style="rounded=0;whiteSpace=wrap;html=1;fontSize=17;fillColor=#f5f5f5;strokeColor=#666666;fontColor=#333333;align=center;" vertex="1" parent="1">
          <mxGeometry x="1030" y="680" width="125" height="40" as="geometry" />
        </mxCell>
        <mxCell id="wdpsz7SIbts_I8NSBxIE-64" value="Главная" style="strokeWidth=1;shadow=0;dashed=0;align=center;html=1;shape=mxgraph.mockup.containers.window;align=left;verticalAlign=top;spacingLeft=8;strokeColor2=#008cff;strokeColor3=#c4c4c4;fontColor=#666666;mainText=;fontSize=17;labelBackgroundColor=none;rounded=0;sketch=0;gradientColor=none;" vertex="1" parent="1">
          <mxGeometry x="40" y="40" width="430" height="360" as="geometry" />
        </mxCell>
        <mxCell id="wdpsz7SIbts_I8NSBxIE-65" value="Блюда" style="shape=table;startSize=30;container=1;collapsible=0;childLayout=tableLayout;fixedRows=1;rowLines=0;fontStyle=1;align=center;rounded=0;shadow=0;labelBackgroundColor=none;sketch=0;fontSize=15;gradientColor=none;" vertex="1" parent="1">
          <mxGeometry x="60" y="150" width="180" height="230" as="geometry" />
        </mxCell>
        <mxCell id="wdpsz7SIbts_I8NSBxIE-66" value="" style="shape=partialRectangle;html=1;whiteSpace=wrap;collapsible=0;dropTarget=0;pointerEvents=0;fillColor=none;top=0;left=0;bottom=1;right=0;points=[[0,0.5],[1,0.5]];portConstraint=eastwest;" vertex="1" parent="wdpsz7SIbts_I8NSBxIE-65">
          <mxGeometry y="30" width="180" height="30" as="geometry" />
        </mxCell>
        <mxCell id="wdpsz7SIbts_I8NSBxIE-67" value="1" style="shape=partialRectangle;html=1;whiteSpace=wrap;connectable=0;fillColor=none;top=0;left=0;bottom=0;right=0;overflow=hidden;" vertex="1" parent="wdpsz7SIbts_I8NSBxIE-66">
          <mxGeometry width="40" height="30" as="geometry" />
        </mxCell>
        <mxCell id="wdpsz7SIbts_I8NSBxIE-68" value="Борщ" style="shape=partialRectangle;html=1;whiteSpace=wrap;connectable=0;fillColor=none;top=0;left=0;bottom=0;right=0;align=left;spacingLeft=6;overflow=hidden;" vertex="1" parent="wdpsz7SIbts_I8NSBxIE-66">
          <mxGeometry x="40" width="140" height="30" as="geometry" />
        </mxCell>
        <mxCell id="wdpsz7SIbts_I8NSBxIE-69" value="" style="shape=partialRectangle;html=1;whiteSpace=wrap;collapsible=0;dropTarget=0;pointerEvents=0;fillColor=none;top=0;left=0;bottom=0;right=0;points=[[0,0.5],[1,0.5]];portConstraint=eastwest;" vertex="1" parent="wdpsz7SIbts_I8NSBxIE-65">
          <mxGeometry y="60" width="180" height="30" as="geometry" />
        </mxCell>
        <mxCell id="wdpsz7SIbts_I8NSBxIE-70" value="2" style="shape=partialRectangle;html=1;whiteSpace=wrap;connectable=0;fillColor=none;top=0;left=0;bottom=0;right=0;overflow=hidden;" vertex="1" parent="wdpsz7SIbts_I8NSBxIE-69">
          <mxGeometry width="40" height="30" as="geometry" />
        </mxCell>
        <mxCell id="wdpsz7SIbts_I8NSBxIE-71" value="Гамбургер" style="shape=partialRectangle;html=1;whiteSpace=wrap;connectable=0;fillColor=none;top=0;left=0;bottom=0;right=0;align=left;spacingLeft=6;overflow=hidden;" vertex="1" parent="wdpsz7SIbts_I8NSBxIE-69">
          <mxGeometry x="40" width="140" height="30" as="geometry" />
        </mxCell>
        <mxCell id="wdpsz7SIbts_I8NSBxIE-72" value="" style="shape=partialRectangle;html=1;whiteSpace=wrap;collapsible=0;dropTarget=0;pointerEvents=0;fillColor=none;top=0;left=0;bottom=0;right=0;points=[[0,0.5],[1,0.5]];portConstraint=eastwest;" vertex="1" parent="wdpsz7SIbts_I8NSBxIE-65">
          <mxGeometry y="90" width="180" height="30" as="geometry" />
        </mxCell>
        <mxCell id="wdpsz7SIbts_I8NSBxIE-73" value="3" style="shape=partialRectangle;html=1;whiteSpace=wrap;connectable=0;fillColor=none;top=0;left=0;bottom=0;right=0;overflow=hidden;" vertex="1" parent="wdpsz7SIbts_I8NSBxIE-72">
          <mxGeometry width="40" height="30" as="geometry" />
        </mxCell>
        <mxCell id="wdpsz7SIbts_I8NSBxIE-74" value="..." style="shape=partialRectangle;html=1;whiteSpace=wrap;connectable=0;fillColor=none;top=0;left=0;bottom=0;right=0;align=left;spacingLeft=6;overflow=hidden;" vertex="1" parent="wdpsz7SIbts_I8NSBxIE-72">
          <mxGeometry x="40" width="140" height="30" as="geometry" />
        </mxCell>
        <mxCell id="wdpsz7SIbts_I8NSBxIE-94" value="" style="verticalLabelPosition=bottom;shadow=0;dashed=0;align=center;html=1;verticalAlign=top;strokeWidth=1;shape=mxgraph.mockup.navigation.scrollBar;strokeColor=#999999;barPos=93.667;fillColor2=#99ddff;strokeColor2=none;direction=north;rounded=0;labelBackgroundColor=none;sketch=0;fontSize=15;gradientColor=none;" vertex="1" parent="1">
          <mxGeometry x="220" y="180" width="20" height="200" as="geometry" />
        </mxCell>
        <mxCell id="wdpsz7SIbts_I8NSBxIE-96" value="Амперия" style="text;strokeColor=none;fillColor=none;html=1;fontSize=24;fontStyle=1;verticalAlign=middle;align=left;" vertex="1" parent="1">
          <mxGeometry x="70" y="90" width="100" height="40" as="geometry" />
        </mxCell>
        <mxCell id="wdpsz7SIbts_I8NSBxIE-97" value="" style="shape=line;strokeColor=#ddeeff;strokeWidth=2;html=1;resizeWidth=1;align=left;" vertex="1" parent="1">
          <mxGeometry x="60" y="130" width="390" height="10" as="geometry" />
        </mxCell>
        <mxCell id="wdpsz7SIbts_I8NSBxIE-98" value="Состав" style="shape=table;startSize=30;container=1;collapsible=0;childLayout=tableLayout;fixedRows=1;rowLines=0;fontStyle=1;align=center;rounded=0;shadow=0;labelBackgroundColor=none;sketch=0;fontSize=15;gradientColor=none;" vertex="1" parent="1">
          <mxGeometry x="266" y="150" width="180" height="230" as="geometry" />
        </mxCell>
        <mxCell id="wdpsz7SIbts_I8NSBxIE-99" value="" style="shape=partialRectangle;html=1;whiteSpace=wrap;collapsible=0;dropTarget=0;pointerEvents=0;fillColor=none;top=0;left=0;bottom=1;right=0;points=[[0,0.5],[1,0.5]];portConstraint=eastwest;" vertex="1" parent="wdpsz7SIbts_I8NSBxIE-98">
          <mxGeometry y="30" width="180" height="30" as="geometry" />
        </mxCell>
        <mxCell id="wdpsz7SIbts_I8NSBxIE-100" value="1" style="shape=partialRectangle;html=1;whiteSpace=wrap;connectable=0;fillColor=none;top=0;left=0;bottom=0;right=0;overflow=hidden;" vertex="1" parent="wdpsz7SIbts_I8NSBxIE-99">
          <mxGeometry width="40" height="30" as="geometry" />
        </mxCell>
        <mxCell id="wdpsz7SIbts_I8NSBxIE-101" value="Говядина" style="shape=partialRectangle;html=1;whiteSpace=wrap;connectable=0;fillColor=none;top=0;left=0;bottom=0;right=0;align=left;spacingLeft=6;overflow=hidden;strokeColor=none;strokeWidth=0;" vertex="1" parent="wdpsz7SIbts_I8NSBxIE-99">
          <mxGeometry x="40" width="140" height="30" as="geometry" />
        </mxCell>
        <mxCell id="wdpsz7SIbts_I8NSBxIE-102" value="" style="shape=partialRectangle;html=1;whiteSpace=wrap;collapsible=0;dropTarget=0;pointerEvents=0;fillColor=none;top=0;left=0;bottom=0;right=0;points=[[0,0.5],[1,0.5]];portConstraint=eastwest;" vertex="1" parent="wdpsz7SIbts_I8NSBxIE-98">
          <mxGeometry y="60" width="180" height="30" as="geometry" />
        </mxCell>
        <mxCell id="wdpsz7SIbts_I8NSBxIE-103" value="2" style="shape=partialRectangle;html=1;whiteSpace=wrap;connectable=0;fillColor=none;top=0;left=0;bottom=0;right=0;overflow=hidden;strokeColor=none;" vertex="1" parent="wdpsz7SIbts_I8NSBxIE-102">
          <mxGeometry width="40" height="30" as="geometry" />
        </mxCell>
        <mxCell id="wdpsz7SIbts_I8NSBxIE-104" value="Картофель" style="shape=partialRectangle;html=1;whiteSpace=wrap;connectable=0;fillColor=none;top=0;left=0;bottom=0;right=0;align=left;spacingLeft=6;overflow=hidden;strokeColor=none;" vertex="1" parent="wdpsz7SIbts_I8NSBxIE-102">
          <mxGeometry x="40" width="140" height="30" as="geometry" />
        </mxCell>
        <mxCell id="wdpsz7SIbts_I8NSBxIE-105" value="" style="shape=partialRectangle;html=1;whiteSpace=wrap;collapsible=0;dropTarget=0;pointerEvents=0;fillColor=none;top=0;left=0;bottom=0;right=0;points=[[0,0.5],[1,0.5]];portConstraint=eastwest;" vertex="1" parent="wdpsz7SIbts_I8NSBxIE-98">
          <mxGeometry y="90" width="180" height="30" as="geometry" />
        </mxCell>
        <mxCell id="wdpsz7SIbts_I8NSBxIE-106" value="3" style="shape=partialRectangle;html=1;whiteSpace=wrap;connectable=0;fillColor=none;top=0;left=0;bottom=0;right=0;overflow=hidden;" vertex="1" parent="wdpsz7SIbts_I8NSBxIE-105">
          <mxGeometry width="40" height="30" as="geometry" />
        </mxCell>
        <mxCell id="wdpsz7SIbts_I8NSBxIE-107" value="..." style="shape=partialRectangle;html=1;whiteSpace=wrap;connectable=0;fillColor=none;top=0;left=0;bottom=0;right=0;align=left;spacingLeft=6;overflow=hidden;" vertex="1" parent="wdpsz7SIbts_I8NSBxIE-105">
          <mxGeometry x="40" width="140" height="30" as="geometry" />
        </mxCell>
        <mxCell id="wdpsz7SIbts_I8NSBxIE-108" value="" style="verticalLabelPosition=bottom;shadow=0;dashed=0;align=center;html=1;verticalAlign=top;strokeWidth=1;shape=mxgraph.mockup.navigation.scrollBar;strokeColor=#999999;barPos=95.667;fillColor2=#99ddff;strokeColor2=none;direction=north;rounded=0;labelBackgroundColor=none;sketch=0;fontSize=15;gradientColor=none;" vertex="1" parent="1">
          <mxGeometry x="426" y="180" width="20" height="200" as="geometry" />
        </mxCell>
        <mxCell id="wdpsz7SIbts_I8NSBxIE-111" value="Войти" style="rounded=0;whiteSpace=wrap;html=1;fontSize=17;fillColor=#f5f5f5;strokeColor=#666666;fontColor=#333333;align=center;" vertex="1" parent="1">
          <mxGeometry x="370" y="90" width="80" height="30" as="geometry" />
        </mxCell>
        <mxCell id="wdpsz7SIbts_I8NSBxIE-113" value="" style="edgeStyle=segmentEdgeStyle;endArrow=classic;html=1;fontSize=15;" edge="1" parent="1">
          <mxGeometry width="50" height="50" relative="1" as="geometry">
            <mxPoint x="450" y="110" as="sourcePoint" />
            <mxPoint x="520" y="110" as="targetPoint" />
          </mxGeometry>
        </mxCell>
      </root>
    </mxGraphModel>
  </diagram>
</mxfile>
